<?xml version="1.0" encoding="utf-8"?>
<!-- Generator: Adobe Illustrator 27.2.0, SVG Export Plug-In . SVG Version: 6.00 Build 0)  -->
<svg version="1.1" id="Layer_1" xmlns="http://www.w3.org/2000/svg" xmlns:xlink="http://www.w3.org/1999/xlink" x="0px" y="0px"
	 viewBox="0 0 512 512" style="enable-background:new 0 0 512 512;" xml:space="preserve">
<style type="text/css">
	.st0{fill:#798C73;}
</style>
<path class="st0" d="M270.2,234.8c-4.2-2.9-11.8-5.9-22.5-9v-31.6c4.4,0.7,7.8,2.9,9.9,6.3c1.5,2.5,2.4,5.4,2.8,8.7
	c0.1,1.4,1.3,2.5,2.8,2.5h13.1c0.8,0,1.5-0.3,2-0.8s0.8-1.3,0.8-2c-0.2-9.2-3.3-16.8-9.2-22.5c-5.3-5.1-12.7-8.3-22.2-9.4v-7.3
	c0-1.5-1.3-2.8-2.8-2.8h-7.2c-1.5,0-2.8,1.3-2.8,2.8v7.4c-9.6,0.6-17.2,4.1-22.8,10.2c-6.1,6.6-9.1,14.2-9.1,22.5
	c0,9.4,2.9,16.8,8.7,22.1c5.1,4.8,12.9,8.3,23.3,10.6v35.7c-5.9-1-9.9-3.6-12.2-7.8c-1.1-2-2.5-6-3-13.9c-0.1-1.5-1.3-2.6-2.8-2.6
	h-13.3c-1.5,0-2.8,1.3-2.8,2.8c0,9.3,1.5,16.5,4.6,21.9c5.4,9.7,15.3,15.3,29.5,16.8v10.7c0,1.5,1.3,2.8,2.8,2.8h7.2
	c1.5,0,2.8-1.3,2.8-2.8v-10.8c8.3-1.1,14.9-3.3,19.6-6.3c9.6-6.2,14.4-16.6,14.3-30.9C281.6,247.9,277.8,240.1,270.2,234.8z
	 M247.7,245.7c5,1.6,7.6,3,9,4c3.9,2.8,5.8,6.7,5.8,12.1c0,3.5-0.7,6.5-2.2,9.2c-2.4,4.4-6.5,6.9-12.5,7.7L247.7,245.7L247.7,245.7z
	 M222.1,209c0-3.5,1.2-6.9,3.7-10.2c1.9-2.5,4.9-4,9.2-4.6V223c-3.6-1.1-6.5-2.5-8.8-4.4C223.4,216.2,222.1,213.1,222.1,209z"/>
<g>
	<path class="st0" d="M312.1,399.1H14c-7.7,0-14-6.3-14-14v-300c0-7.7,6.3-14,14-14h454.5c7.7,0,14,6.3,14,14v113.8
		c0,7.7-6.3,14-14,14s-14-6.3-14-14V99.1H27.9v272.1H312c7.7,0,14,6.3,14,14C326,392.8,319.8,399.1,312.1,399.1z"/>
	<path class="st0" d="M498,300.3h-16v-47.4c0-7.7-6.3-14-14-14h-71.6c-1.9,0-3.7,0.4-5.4,1.1c-0.3-1.6-0.5-3.3-0.5-4.9
		c0-13.3,10.8-24.2,24.1-24.3c0.1,0,0.1,0,0.2,0c3.8,0.1,7.4-1.4,10-4s4.2-6.2,4.2-10V159c0-4.8-2.5-9.3-6.6-11.9
		c0,0-8.7-5.4-17.4-10.7c-20.8-12.8-20.8-12.8-25-12.8H104.9c-4.3,0-4.3,0-26.4,14.1c-9.3,6-18.6,11.9-18.6,11.9
		c-4,2.6-6.4,7-6.4,11.8v35.4c0,3.7,1.5,7.3,4.2,10c2.7,2.6,6.3,4,10,4h0.1c13.3,0.1,24.1,10.9,24.1,24.3
		c0,13.3-10.8,24.2-24.1,24.3c-0.1,0-0.3,0-0.4,0c-7.7,0-14,6.3-14,14v37.8c0,4.8,2.5,9.3,6.6,11.9c0,0,8.7,5.4,17.4,10.7
		c20.8,12.8,20.8,12.8,25,12.8h250.1V427c0,7.7,6.3,14,14,14H498c7.7,0,14-6.3,14-14V314.3C512,306.6,505.7,300.3,498,300.3z
		 M410.5,266.9h43.6v33.4h-43.6v-31.7V266.9z M106.2,318.6c-4.8-2.9-14.8-9-24.9-15.2v-17.8c22.1-6,38.5-26.3,38.5-50.4
		s-16.3-44.3-38.5-50.4v-15.6c11.2-7.2,22.3-14.3,27.5-17.5h267.5c4.8,2.9,14.8,9,24.9,15.2v17.8c-22.1,6-38.5,26.3-38.5,50.4
		c0,16.1,7.4,31.2,19.9,41v24.2h-16c-7.7,0-14,6.3-14,14v4.3H106.2L106.2,318.6z M484.1,412.9H380.5v-80.4v-4.3h16h87.6V412.9z"/>
	<path class="st0" d="M432.3,390.4c-7.7,0-14-6.3-14-14v-17.3c0-7.7,6.3-14,14-14s14,6.3,14,14v17.3
		C446.3,384.1,440,390.4,432.3,390.4z"/>
</g>
</svg>
