<?xml version="1.0" encoding="utf-8"?>
<!-- Generator: Adobe Illustrator 27.2.0, SVG Export Plug-In . SVG Version: 6.00 Build 0)  -->
<svg version="1.1" id="Layer_1" xmlns="http://www.w3.org/2000/svg" xmlns:xlink="http://www.w3.org/1999/xlink" x="0px" y="0px"
	 viewBox="0 0 800 800" style="enable-background:new 0 0 800 800;" xml:space="preserve">
<style type="text/css">
	.st0{fill:#798C73;}
</style>
<path class="st0" d="M730.4,668.2h-35.3c-11.9,0-21.6-9.7-21.6-21.6c0-11.9,9.7-21.6,21.6-21.6h35.3c14.6,0,26.4-11.9,26.4-26.4
	V201.3c0-14.6-11.9-26.4-26.4-26.4H69.6c-14.6,0-26.4,11.9-26.4,26.4v397.4c0,14.6,11.9,26.4,26.4,26.4h474.9
	c11.9,0,21.6,9.7,21.6,21.6c0,11.9-9.7,21.6-21.6,21.6H69.6C31.2,668.2,0,637,0,598.7V201.3c0-38.4,31.2-69.6,69.6-69.6h660.9
	c38.4,0,69.6,31.2,69.6,69.6v397.4C800,637,768.8,668.2,730.4,668.2z"/>
<path class="st0" d="M609.8,583.9H190.2c-11.9,0-21.6-9.7-21.6-21.6v-10.5c0-28.8-23.4-52.2-52.2-52.2h-10.5
	c-11.9,0-21.6-9.7-21.6-21.6V322c0-11.9,9.7-21.6,21.6-21.6h10.5c28.8,0,52.2-23.4,52.2-52.2v-10.5c0-11.9,9.7-21.6,21.6-21.6h419.5
	c11.9,0,21.6,9.7,21.6,21.6v10.5c0,28.8,23.4,52.2,52.2,52.2H694c11.9,0,21.6,9.7,21.6,21.6v156c0,11.9-9.7,21.6-21.6,21.6h-10.5
	c-28.8,0-52.2,23.4-52.2,52.2v10.5C631.3,574.2,621.7,583.9,609.8,583.9z M211.2,540.8h377.7c5.1-43.8,39.9-78.6,83.7-83.7V342.9
	c-43.8-5.1-78.6-39.9-83.7-83.7H211.2c-5.1,43.8-39.9,78.6-83.7,83.7v114.2C171.2,462.1,206.1,497,211.2,540.8z M400.1,510.5
	c-4.9,0-9.6-1.4-13.7-4c-12.2-7.7-73.8-48-94.6-83.1c-10.2-17.2-14.7-33.8-14.7-53.9c0-46.3,33-80,78.5-80
	c20.2,0,34.6,6.5,44.6,14.2c10-7.7,24.3-14.2,44.5-14.2c45.5,0,78.5,33.6,78.5,80c0,20-4.5,36.7-14.7,53.9
	c-20.7,34.9-82.3,75.4-94.4,83.1C409.7,509.1,404.9,510.5,400.1,510.5z M355.5,332.6c-17.1,0-35.4,9.7-35.4,36.8
	c0,12.2,2.5,21.5,8.7,32c10.8,18.2,45.5,45.2,71.2,62.5c25.7-17.4,60.4-44.4,71.1-62.5c6.2-10.5,8.7-19.8,8.7-32
	c0-27.2-18.3-36.8-35.3-36.8c-11.6,0-19.7,4.1-24.1,12.2c-4,7.5-11.8,12.2-20.4,12.2c-8.5,0-16.4-4.7-20.4-12.2
	C375.3,336.8,367.2,332.6,355.5,332.6z"/>
</svg>
